<?xml version="1.0" encoding="UTF-8"?>
<svg id="Capa_2" data-name="Capa 2" xmlns="http://www.w3.org/2000/svg" viewBox="0 0 132.15 28.36">
  <defs>
    <style>
      .cls-1 {
        fill: none;
        stroke: #000;
        stroke-width: 5.5px;
      }

      .cls-2 {
        fill: #0b1228;
      }

      .cls-3 {
        fill-rule: evenodd;
      }
    </style>
  </defs>
  <g id="Capa_1-2" data-name="Capa 1">
    <g>
      <path class="cls-1" d="m10.2,19.45h2.41c.84,0,1.65.33,2.24.91.59.58.92,1.36.92,2.17s-.33,1.59-.92,2.17c-.59.58-1.4.91-2.24.91h-2.41c-.84,0-1.64-.33-2.24-.91-.59-.58-.92-1.36-.92-2.17s.33-1.59.92-2.17c.59-.58,1.4-.91,2.24-.91Zm-4-9.53h6.16c.46,0,.91.09,1.33.26.42.17.8.42,1.12.73.32.31.57.68.75,1.09.17.41.26.85.26,1.29,0,.44-.09.88-.26,1.29-.17.41-.43.78-.75,1.09-.32.32-.7.56-1.12.73-.42.17-.87.26-1.33.26h-6.16c-.92,0-1.8-.36-2.45-.99-.65-.63-1.01-1.49-1.01-2.38s.36-1.75,1.01-2.38c.65-.63,1.53-.99,2.45-.99Zm7.34-2.63c-1.25,0-2.27-1.02-2.27-2.27s1.02-2.27,2.27-2.27,2.27,1.02,2.27,2.27-1.02,2.27-2.27,2.27Z"/>
      <path d="m12.63,18.83h-2.45c-1,0-1.95.39-2.65,1.08-.7.69-1.1,1.62-1.1,2.6s.4,1.91,1.1,2.6c.7.69,1.66,1.08,2.65,1.08h2.45c1,0,1.95-.39,2.65-1.08.7-.69,1.1-1.62,1.1-2.6s-.4-1.91-1.1-2.6c-.7-.69-1.66-1.08-2.65-1.08Zm-.22-9.53h-6.25c-1.07,0-2.1.42-2.86,1.16-.76.74-1.19,1.75-1.19,2.81s.43,2.06,1.19,2.81c.76.74,1.79,1.16,2.86,1.16h6.25c.53,0,1.06-.1,1.55-.3.49-.2.94-.49,1.31-.86.37-.37.67-.81.88-1.29.2-.48.31-1,.31-1.52,0-.52-.1-1.04-.31-1.52-.2-.48-.5-.92-.88-1.29-.38-.37-.82-.66-1.31-.86-.49-.2-1.02-.3-1.55-.3Zm-1.68-4.3c0-1.56,1.26-2.82,2.82-2.82s2.82,1.26,2.82,2.82-1.26,2.82-2.82,2.82-2.82-1.26-2.82-2.82h0Z"/>
      <path class="cls-3" d="m40.21,25.37V6.19c0-.24.2-.44.44-.44h10.64c.24,0,.44.2.44.44v1.5c0,.24-.2.44-.44.44h-8.69v6.35h7.7c.24,0,.44.2.44.44v1.5c0,.24-.2.44-.44.44h-7.7v6.55h8.7c.24,0,.44.2.44.44v1.51c0,.24-.2.44-.44.44h-10.65c-.24,0-.43-.19-.43-.43h0s0,0,0,0Z"/>
      <path class="cls-2" d="m130.79,7.74l-.62-1.77v1.77h-.2v-2.18h.55l.54,1.77.55-1.77h.53v2.18h-.4s0-1.77,0-1.77l-.62,1.77h-.34,0Zm-2.21-1.99h-.6v-.2h1.59v.2h-.6v1.79h-.4v-1.79Z"/>
      <path class="cls-3" d="m122.24,23.62h0c1.21,0,2.09-.29,2.67-.81.57-.52.88-1.3.88-2.38v-.22c0-1.45-1.03-2.69-2.45-2.96h0s-3.26-.86-3.26-.86c-2.45-.6-4.13-2.87-3.98-5.39,0-1.62.58-2.99,1.59-3.95,1.02-.96,2.46-1.5,4.17-1.5,1.91,0,3.31.65,4.29,1.64.98.99,1.52,2.3,1.74,3.62.04.27-.16.5-.42.5h-1.5c-.22,0-.4-.17-.43-.38-.26-1.77-1.81-3.07-3.6-3h0s-.05,0-.05,0c-1.07,0-1.93.31-2.51.85-.58.53-.92,1.31-.92,2.28h0s0,0,0,0c-.05,1.47.93,2.77,2.35,3.13h.01s3.42.94,3.42.94c2.46.61,4.17,2.87,4.09,5.42,0,1.71-.58,3.12-1.64,4.1-1.05.98-2.56,1.51-4.37,1.51-1.73.07-3.41-.58-4.64-1.8-1.19-1.17-1.86-2.77-1.87-4.45,0-.23.18-.42.4-.43l1.47-.1c.26-.02.46.19.47.43.07,1.58,1.07,2.96,2.53,3.54.5.19,1.03.29,1.56.27h0s0,0,0,0Zm-16.3-6.1v7.84c0,.24.2.44.44.44h1.7c.24,0,.44-.2.44-.44v-7.84l6.6-11.12c.17-.29-.05-.65-.4-.65h-1.8c-.16,0-.31.08-.4.22l-5.31,8.95-5.31-8.95c-.08-.14-.23-.22-.4-.22h-1.86c-.35,0-.57.36-.39.66l6.67,11.12h0Zm-13.28,6.1h0c1.21,0,2.09-.29,2.67-.81.57-.52.88-1.3.88-2.38v-.21c0-1.45-1.03-2.69-2.45-2.96h0s-3.26-.86-3.26-.86c-2.45-.6-4.13-2.87-3.98-5.39,0-1.62.58-2.99,1.59-3.95,1.02-.96,2.46-1.5,4.17-1.5,1.91,0,3.31.65,4.29,1.64.98.99,1.52,2.3,1.74,3.62.04.27-.16.5-.42.5h-1.5c-.22,0-.4-.17-.43-.38-.26-1.77-1.81-3.07-3.6-3h0s-.05,0-.05,0c-1.07,0-1.93.31-2.51.85-.58.53-.92,1.31-.92,2.28h0s0,.01,0,.01c-.1,1.45.86,2.76,2.27,3.1l.1.02,3.42.94c2.46.61,4.17,2.87,4.09,5.42,0,1.71-.58,3.12-1.64,4.1-1.05.98-2.56,1.51-4.37,1.51-2.64.11-5.06-1.45-6.06-3.91-.3-.74-.45-1.53-.46-2.33,0-.23.18-.42.4-.43l1.48-.1c.26-.02.46.19.47.43.05,1.01.48,1.97,1.2,2.68.77.76,1.82,1.16,2.89,1.13h0s0,0,0,0Zm-20.08,1.75V6.19c0-.24.2-.44.44-.44h10.64c.24,0,.44.2.44.44v1.5c0,.24-.2.44-.44.44h-8.69v6.35h7.7c.24,0,.44.2.44.44v1.5c0,.24-.2.44-.44.44h-7.7v6.55h8.7c.24,0,.44.2.44.44v1.5c0,.24-.2.44-.44.44h-10.64c-.24,0-.44-.19-.44-.43h0s0,0,0,0Zm-3.57-19.18v19.18c0,.24-.2.44-.44.44h-1.64c-.15,0-.3-.08-.38-.21l-9.25-15.18v14.95c0,.24-.2.44-.44.44h-1.51c-.24,0-.44-.2-.44-.44h0V6.19c0-.24.2-.44.44-.44h1.86c.15,0,.29.08.37.21l9.05,15.18V6.19c0-.24.2-.44.44-.44h1.51c.24,0,.43.2.43.44h0Zm-39.01,1.75h0c-1.08,0-2.2.32-3.04,1.08-.84.75-1.43,1.96-1.43,3.78v5.77c0,1.82.59,3.03,1.43,3.78.84.76,1.95,1.08,3.04,1.08s2.2-.32,3.04-1.08c.84-.75,1.43-1.96,1.43-3.78v-1.3h-4.33c-.24,0-.43-.19-.43-.43h0v-1.51c0-.24.2-.44.44-.44h6.27c.24,0,.44.2.44.44v3.35c0,2.16-.67,3.99-1.87,5.28-1.2,1.29-2.92,2.03-4.98,2.03s-3.74-.74-4.95-2.03c-1.21-1.29-1.9-3.12-1.9-5.28v-5.83c0-2.16.67-3.99,1.87-5.28,1.2-1.29,2.92-2.03,4.98-2.03,3.47-.12,6.43,2.47,6.77,5.9.03.26-.18.47-.43.47h-1.54c-.23,0-.41-.17-.44-.38-.3-2.13-2.18-3.68-4.35-3.59h0Z"/>
    </g>
  </g>
</svg>