<?xml version="1.0" encoding="UTF-8"?>
<svg id="Capa_2" data-name="Capa 2" xmlns="http://www.w3.org/2000/svg" viewBox="0 0 100 47.86">
  <g id="Capa_1-2" data-name="Capa 1">
    <g>
      <path d="m0,47.86L30.63,9.81h.11c-1.23,2.08-5.33,9.42-5.33,15.07,0,4.1,4.88,8.95,6.22,10.37h-.15c-1.65-1.14-6.23-4.6-10.37-4.6-5.07,0-15.75,11.34-20.93,17.21h-.18,0Z"/>
      <path d="m36.02,0L5.39,38.05h-.11c1.23-2.08,5.33-9.42,5.33-15.07,0-4.1-4.88-8.95-6.22-10.37h.15c1.65,1.14,6.23,4.6,10.37,4.6C19.99,17.21,30.66,5.87,35.85,0h.18Z"/>
      <polygon points="52.87 16.74 48.79 16.74 44.5 23.29 40.24 16.74 36.11 16.74 42.29 25.69 35.49 35.32 39.59 35.32 44.5 28.09 49.39 35.32 53.52 35.32 46.74 25.69 52.87 16.74"/>
      <polygon points="66.96 22.34 62.9 22.34 57.3 28.09 57.3 16.74 53.91 16.74 53.91 35.32 57.3 35.32 57.3 29.35 63.39 35.32 67.74 35.32 60.73 28.58 66.96 22.34"/>
      <path d="m76.15,22.56c-.95-.43-2.07-.65-3.34-.65-1.14,0-2.19.19-3.17.58s-1.82.93-2.5,1.61l1.75,2.07c.5-.52,1.07-.92,1.7-1.21.64-.29,1.33-.44,2.09-.44,1.01,0,1.82.25,2.41.76.55.47.84,1.11.88,1.92h-3.04c-1.26,0-2.36.17-3.3.52-.95.34-1.68.84-2.19,1.47s-.77,1.4-.77,2.3c0,.83.21,1.56.63,2.2.42.64,1.01,1.14,1.77,1.5.76.36,1.63.54,2.63.54,1.1,0,2.07-.23,2.9-.68.6-.33,1.1-.75,1.51-1.26v1.53h3.1v-7.98c0-1.15-.27-2.13-.81-2.93-.54-.8-1.29-1.42-2.24-1.85h0Zm-.48,8.96c-.35.51-.8.9-1.35,1.19-.55.28-1.16.43-1.85.43s-1.24-.17-1.68-.5c-.44-.33-.65-.78-.65-1.33,0-.64.28-1.12.85-1.46.56-.33,1.3-.5,2.21-.5h2.77v1.66c-.08.18-.18.35-.29.52h0Z"/>
      <rect x="80.09" y="16.74" width="3.39" height="18.58"/>
      <path d="m94.65,22.74c-1.01-.58-2.15-.86-3.44-.86s-2.51.29-3.57.88c-1.06.58-1.89,1.4-2.5,2.44s-.92,2.24-.92,3.59.32,2.55.95,3.58c.64,1.03,1.52,1.84,2.65,2.42s2.45.88,3.94.88c1.24,0,2.37-.21,3.39-.63,1.02-.42,1.86-1.01,2.51-1.77l-1.8-2.06c-1.07,1.2-2.37,1.8-3.92,1.8-.84,0-1.59-.17-2.24-.5-.65-.33-1.16-.82-1.52-1.47-.21-.37-.35-.79-.44-1.25h10.11v-1.13c0-1.34-.28-2.52-.85-3.53-.57-1.01-1.35-1.81-2.36-2.38h0Zm-5.27,2.28c.53-.34,1.15-.52,1.86-.52s1.25.17,1.75.5c.5.33.88.79,1.16,1.38.18.37.29.8.36,1.26h-6.74c.07-.43.19-.82.36-1.17.3-.63.72-1.11,1.25-1.46h0Z"/>
      <polygon points="96.39 22.34 96.9 22.34 96.9 20.72 97.49 20.72 97.49 20.28 95.8 20.28 95.8 20.72 96.39 20.72 96.39 22.34"/>
      <polygon points="99.25 20.28 98.82 21.64 98.39 20.28 97.71 20.28 97.71 22.34 98.23 22.34 98.23 20.81 98.7 22.34 99.01 22.34 99.48 20.81 99.48 22.34 100 22.34 100 20.28 99.25 20.28"/>
    </g>
  </g>
</svg>