<?xml version="1.0" encoding="UTF-8"?><svg id="Layer_1" xmlns="http://www.w3.org/2000/svg" viewBox="0 0 302.62 280"><defs><style>.cls-1{stroke-width:0px;}</style></defs><path class="cls-1" d="M109.4,198.66l73.48-91.28h.26c-2.96,5-12.79,22.61-12.79,36.18,0,9.84,11.7,21.47,14.92,24.88h-.4c-3.95-2.74-14.94-11.02-24.85-11.02-12.16,0-37.74,27.17-50.16,41.24h-.46Z"/><path class="cls-1" d="M193.22,81.34l-73.48,91.28h-.26c2.96-5,12.79-22.61,12.79-36.18,0-9.84-11.7-21.47-14.92-24.88h.4c3.95,2.74,14.94,11.02,24.85,11.02,12.16,0,37.74-27.17,50.16-41.24h.46Z"/></svg>