<?xml version="1.0" encoding="UTF-8"?>
<svg id="Layer_1" data-name="Layer 1" xmlns="http://www.w3.org/2000/svg" viewBox="0 0 654.29 120.85">
  <defs>
    <style>
      .cls-1 {
        fill-rule: evenodd;
      }

      .cls-1, .cls-2 {
        fill: #fff;
      }

      .cls-3 {
        fill: #f04927;
      }
    </style>
  </defs>
  <path class="cls-1" d="M191.1,116.39V19.49c0-1.22.99-2.21,2.21-2.21h53.75c1.22,0,2.21.99,2.21,2.21v7.77c0,1.22-.99,2.21-2.21,2.21h-43.46v31.91h38.74c1.22,0,2.21.99,2.21,2.21v7.45c0,1.22-.99,2.21-2.21,2.21h-38.74v33.17h43.46c1.22,0,2.21.99,2.21,2.21v7.77c0,1.22-.99,2.21-2.21,2.21h-53.76c-1.22,0-2.21-1-2.21-2.22Z"/>
  <path class="cls-2" d="M648.04,27.02l-2.97-8.9v8.9h-1.64v-10.54h2.75l2.7,8.57,2.75-8.57h2.66v10.54h-1.64v-8.9l-2.97,8.9h-1.64Z"/>
  <path class="cls-2" d="M637.18,17.8h-3.3v-1.32h8.24v1.32h-3.3v9.22h-1.65v-9.22Z"/>
  <path class="cls-1" d="M604.39,107.67h.02c6.13,0,10.59-1.46,13.52-4.1,2.9-2.62,4.48-6.58,4.48-12.01h0c.04-3.62-1.2-7.12-3.49-9.9-2.3-2.78-5.5-4.65-9.05-5.29h-.05s-16.73-4.43-16.73-4.43c-6.1-1.5-11.49-5.09-15.22-10.14-3.73-5.05-5.57-11.24-5.22-17.51,0-8.31,2.96-15.33,8.18-20.26,5.22-4.93,12.62-7.7,21.38-7.7,9.79,0,16.99,3.31,22.03,8.4,5.01,5.07,7.78,11.81,8.91,18.56.23,1.36-.84,2.55-2.17,2.55h-7.71c-1.15,0-2.06-.87-2.21-1.94-.62-4.24-2.73-8.13-5.97-10.96-3.45-3.02-7.93-4.6-12.51-4.43h-.02s-.02,0-.02,0c-5.44,0-9.77,1.58-12.73,4.29-2.95,2.69-4.65,6.61-4.65,11.51v.06c-.17,3.62.94,7.18,3.12,10.06,2.19,2.88,5.32,4.9,8.85,5.71h.02s17.33,4.73,17.33,4.73c6.06,1.5,11.43,5.03,15.2,10,3.77,4.97,5.73,11.09,5.54,17.33,0,8.63-2.95,15.73-8.3,20.68-5.35,4.93-12.98,7.6-22.17,7.61-4.33.18-8.65-.53-12.69-2.08-4.05-1.56-7.74-3.93-10.84-6.97-3.1-3.04-5.54-6.69-7.17-10.71-1.51-3.73-2.3-7.71-2.33-11.73,0-1.18.92-2.12,2.05-2.19l7.47-.5c1.29-.09,2.33.94,2.38,2.15.11,2.36.64,4.68,1.55,6.87,1.05,2.49,2.59,4.75,4.53,6.63,1.94,1.88,4.24,3.36,6.76,4.34,2.52.98,5.22,1.44,7.92,1.35h.02Z"/>
  <path class="cls-1" d="M522.84,76.77v39.62c0,1.22.99,2.21,2.21,2.21h8.1c1.22,0,2.21-.99,2.21-2.21v-39.63l32.04-56.18c.84-1.47-.22-3.31-1.92-3.31h-8.71c-.79,0-1.53.43-1.92,1.12l-25.75,45.21-25.75-45.21c-.39-.69-1.13-1.12-1.92-1.12h-9.03c-1.7,0-2.77,1.84-1.92,3.32l32.36,56.18Z"/>
  <path class="cls-1" d="M455.6,107.67h.02c6.13,0,10.59-1.46,13.52-4.1,2.9-2.62,4.48-6.58,4.48-12.01h0c.04-3.62-1.2-7.12-3.5-9.9-2.3-2.78-5.5-4.65-9.05-5.29h-.05s-16.73-4.43-16.73-4.43c-6.1-1.5-11.49-5.09-15.22-10.14-3.73-5.05-5.57-11.24-5.22-17.51,0-8.31,2.95-15.33,8.18-20.26,5.22-4.93,12.62-7.7,21.38-7.7,9.79,0,16.99,3.31,22.03,8.4,5.01,5.07,7.79,11.81,8.91,18.56.23,1.36-.84,2.55-2.17,2.55h-7.71c-1.15,0-2.06-.87-2.22-1.94-.62-4.24-2.73-8.13-5.97-10.96-3.45-3.02-7.93-4.6-12.51-4.43h-.02s-.02,0-.02,0c-5.44,0-9.77,1.58-12.73,4.29-2.95,2.69-4.65,6.61-4.65,11.51v.06c-.17,3.62.94,7.18,3.13,10.06,2.19,2.88,5.32,4.9,8.85,5.71h.02s17.33,4.73,17.33,4.73c6.06,1.5,11.43,5.03,15.2,10,3.77,4.97,5.73,11.09,5.54,17.33,0,8.63-2.94,15.73-8.3,20.68-5.35,4.93-12.98,7.6-22.17,7.61-4.33.18-8.65-.52-12.7-2.07-4.05-1.55-7.74-3.93-10.85-6.96-3.1-3.04-5.54-6.68-7.18-10.71-1.52-3.73-2.31-7.71-2.34-11.73,0-1.18.92-2.11,2.05-2.19l7.49-.51c1.3-.09,2.33.93,2.39,2.15.11,2.36.64,4.68,1.56,6.86,1.05,2.49,2.59,4.75,4.53,6.63,1.94,1.88,4.24,3.36,6.76,4.34,2.52.98,5.21,1.44,7.92,1.35h.02Z"/>
  <path class="cls-1" d="M354.58,116.39V19.49c0-1.22.99-2.21,2.21-2.21h53.75c1.22,0,2.21.99,2.21,2.21v7.77c0,1.22-.99,2.21-2.21,2.21h-43.46v31.91h38.74c1.22,0,2.21.99,2.21,2.21v7.45c0,1.22-.99,2.21-2.21,2.21h-38.74v33.17h43.46c1.22,0,2.21.99,2.21,2.21v7.77c0,1.22-.99,2.21-2.21,2.21h-53.76c-1.22,0-2.21-1-2.21-2.22Z"/>
  <path class="cls-1" d="M336.84,19.49v96.9c0,1.22-.99,2.21-2.21,2.21h-8.2c-.77,0-1.49-.4-1.89-1.06l-46.28-76.44v75.29c0,1.22-.99,2.21-2.21,2.21h-8.08c-1.22,0-2.21-.99-2.21-2.21V19.49c0-1.22.99-2.21,2.21-2.21h8.52c.77,0,1.49.4,1.89,1.07l46.28,76.44V19.49c0-1.22.99-2.21,2.21-2.21h7.77c1.22,0,2.21.99,2.21,2.21Z"/>
  <path class="cls-1" d="M140.36,28.2h-.03c-5.44,0-11.03,1.66-15.24,5.55-4.19,3.86-7.17,10.05-7.17,19.38v29.61c0,9.33,2.97,15.52,7.17,19.38,4.22,3.88,9.81,5.55,15.24,5.55s11.03-1.66,15.25-5.55c4.19-3.86,7.17-10.05,7.17-19.38v-6.67h-21.41c-1.22,0-2.21-.99-2.21-2.21v-7.76c0-1.22.99-2.21,2.21-2.21h31.39c1.22,0,2.21.99,2.21,2.21v16.63c0,10.96-3.39,20.25-9.46,26.81-6.08,6.57-14.76,10.31-25.14,10.31s-18.91-3.74-25.02-10.31c-6.11-6.56-9.58-15.85-9.58-26.81v-29.61c0-10.96,3.39-20.25,9.46-26.81,6.08-6.57,14.76-10.3,25.15-10.3,8.62-.29,17.02,2.79,23.42,8.58,6.13,5.55,9.96,13.17,10.77,21.37.13,1.31-.92,2.39-2.19,2.39h-7.8c-1.15,0-2.06-.86-2.21-1.94-.72-5.07-3.25-9.71-7.13-13.07-4.1-3.55-9.4-5.39-14.82-5.15h-.03Z"/>
  <path class="cls-3" d="M52.68,83.97h-12.28c-5,0-9.79,1.94-13.32,5.4-3.53,3.46-5.52,8.15-5.52,13.04s1.98,9.58,5.52,13.04c3.53,3.46,8.33,5.4,13.32,5.4h12.28c5,0,9.79-1.94,13.32-5.4,3.53-3.46,5.52-8.15,5.52-13.04s-1.98-9.58-5.52-13.04c-3.53-3.46-8.33-5.4-13.32-5.4Z"/>
  <path class="cls-3" d="M51.48,36.31h-31.23c-5.37,0-10.52,2.09-14.32,5.82-3.8,3.72-5.93,8.78-5.93,14.04s2.13,10.32,5.93,14.04c3.8,3.72,8.95,5.82,14.32,5.82h31.23c2.66,0,5.29-.51,7.75-1.51,2.46-1,4.69-2.46,6.57-4.3,1.88-1.84,3.37-4.03,4.39-6.44,1.02-2.41,1.54-4.99,1.54-7.6s-.52-5.19-1.54-7.6c-1.02-2.41-2.51-4.6-4.39-6.44-1.88-1.84-4.11-3.31-6.57-4.3-2.46-1-5.09-1.51-7.75-1.51Z"/>
  <path class="cls-3" d="M43.12,14.18c0-7.83,6.35-14.18,14.18-14.18h0c7.83,0,14.18,6.35,14.18,14.18h0c0,7.83-6.35,14.18-14.18,14.18h0c-7.83,0-14.18-6.35-14.18-14.18h0Z"/>
</svg>