<svg xmlns="http://www.w3.org/2000/svg" data-name="Capa 2" viewBox="0 0 820.78 387.64"><g data-name="Layer 1"><path d="M247.9 80.79h-.88L0 387.64h1.55C43.3 340.37 129.3 249.02 170.17 249.02c33.34 0 70.27 27.85 83.55 37.05h1.34c-10.83-11.47-50.17-50.57-50.17-83.65 0-45.63 33.06-104.81 43.01-121.63ZM40.59 306.85h.88L288.49 0h-1.55c-41.75 47.27-127.75 138.62-168.62 138.62-33.34 0-70.27-27.85-83.55-37.05h-1.34c10.83 11.47 50.17 50.57 50.17 83.65 0 45.63-33.06 104.81-43.01 121.63ZM426.31 136.65h-32.86l-34.53 52.76-34.33-52.76h-33.28l49.75 72.06-54.77 77.59h33.07l39.55-58.25 39.35 58.25h33.28l-54.58-77.6 49.35-72.05zM539.61 181.76h-32.63l-44.9 46.23v-91.34h-27.23V286.3h27.23v-48.1l48.85 48.1h34.91l-56.29-54.29 50.06-50.25z"/><path d="M614.19 183.64c-7.69-3.47-16.66-5.21-26.92-5.21-9.14 0-17.67 1.56-25.56 4.68-7.9 3.12-14.62 7.45-20.16 12.99l14.13 16.63c4.02-4.16 8.59-7.41 13.72-9.77 5.13-2.35 10.74-3.53 16.84-3.53 8.17 0 14.65 2.05 19.43 6.13 4.41 3.77 6.78 8.94 7.12 15.48h-24.48c-10.12 0-18.99 1.39-26.6 4.16-7.62 2.77-13.51 6.72-17.67 11.85s-6.24 11.3-6.24 18.5c0 6.65 1.7 12.54 5.09 17.67s8.14 9.14 14.24 12.05 13.16 4.37 21.2 4.37c8.87 0 16.66-1.84 23.38-5.51 4.82-2.64 8.87-6.02 12.16-10.12v12.3h24.94v-64.22c0-9.28-2.18-17.15-6.55-23.59-4.36-6.44-10.39-11.4-18.08-14.86Zm-1.33 68.45c-.67 1.45-1.46 2.86-2.39 4.2v-.02c-2.85 4.09-6.49 7.27-10.92 9.56-4.44 2.29-9.42 3.43-14.97 3.43s-10.08-1.35-13.61-4.05c-3.53-2.7-5.3-6.27-5.3-10.7 0-5.12 2.29-9.04 6.86-11.74s10.53-4.05 17.88-4.05h22.45v13.37ZM645.86 136.65h27.23V286.3h-27.23zM763.46 185.4h.01c-8.11-4.65-17.36-6.97-27.75-6.97s-20.26 2.36-28.79 7.07c-8.52 4.71-15.24 11.26-20.16 19.64-4.92 8.39-7.38 18.05-7.38 28.99s2.56 20.58 7.69 28.89c5.12 8.31 12.26 14.83 21.41 19.54 9.14 4.71 19.74 7.07 31.8 7.07 9.98 0 19.09-1.7 27.33-5.09 8.24-3.39 15-8.14 20.26-14.24l-14.55-16.63c-8.59 9.7-19.12 14.55-31.59 14.55-6.79 0-12.82-1.35-18.08-4.05-5.27-2.7-9.35-6.65-12.26-11.85-1.68-3-2.86-6.37-3.57-10.08h81.51v-9.14c0-10.81-2.29-20.3-6.86-28.47-4.57-8.17-10.91-14.58-19.02-19.23Zm-55.72 39.58c.6-3.45 1.56-6.6 2.93-9.46 2.42-5.06 5.78-8.97 10.08-11.74 4.29-2.76 9.28-4.15 14.96-4.15s10.11 1.35 14.13 4.05 7.13 6.41 9.35 11.12c1.42 3.02 2.38 6.42 2.89 10.18h-54.35ZM790.34 165.55h4.39v11.88h3.54v-11.88h4.36v-3.12h-12.29v3.12zM815.6 162.43l-2.95 9.92-2.93-9.92h-5.2v15h3.54v-11.14l3.27 11.14h2.63l3.27-11.17v11.17h3.55v-15h-5.18z"/></g></svg>