<svg xmlns="http://www.w3.org/2000/svg" data-name="Capa 2" viewBox="0 0 113.57 59"><g data-name="Capa 1"><path d="M37.08 13.1h-.13L0 59h.23c6.25-7.08 19.11-20.74 25.23-20.74 4.98 0 10.51 4.16 12.5 5.54h.2c-1.62-1.71-7.5-7.56-7.5-12.51 0-6.82 4.94-15.68 6.43-18.19ZM5.07 45.9h.13L42.15 0h-.23c-6.25 7.08-19.11 20.74-25.23 20.74-4.98 0-10.51-4.16-12.5-5.54h-.2c1.62 1.71 7.5 7.56 7.5 12.51 0 6.82-4.94 15.68-6.43 18.19ZM105.57 21.01h1.29v3.89h.52v-3.89h1.29v-.43h-3.1v.43zM112.96 20.58l-1.52 3.02-1.53-3.02h-.6v4.32h.52v-3.38l1.41 2.77h.39l1.43-2.78v3.39h.51v-4.32h-.61zM56.92 25.39h-5.14l-6.56 7.47V17.61H40.9v25.92h4.32V34.4l7.38 9.13H58l-8.56-9.82 7.48-8.32zM72.73 25.84c-1.2-.59-2.65-.88-4.36-.88-1.42 0-2.72.26-3.91.77s-2.14 1.24-2.86 2.16c-.72.92-1.15 2.03-1.3 3.33h4.25c.17-.91.6-1.59 1.3-2.03.7-.44 1.54-.67 2.52-.67.86 0 1.57.16 2.12.47.55.31.96.79 1.22 1.42.26.64.4 1.43.4 2.39h-4.57c-1.68 0-3.1.23-4.25.7s-2.02 1.12-2.61 1.96c-.59.84-.88 1.84-.88 2.99 0 .98.24 1.9.72 2.74.48.84 1.21 1.51 2.2 2.02.98.5 2.22.76 3.71.76.77 0 1.46-.08 2.07-.25.61-.17 1.16-.4 1.64-.7.48-.3.91-.65 1.28-1.06.37-.41.68-.85.92-1.33l.43 2.92h3.67V32.32c0-1.54-.32-2.85-.95-3.94-.64-1.09-1.55-1.93-2.75-2.52Zm-.72 9.85c-.07.65-.22 1.26-.43 1.84-.22.58-.52 1.1-.92 1.57s-.86.83-1.4 1.08c-.54.25-1.16.38-1.85.38-.62 0-1.16-.1-1.62-.29-.46-.19-.8-.47-1.04-.83s-.36-.79-.36-1.3.12-.94.36-1.31c.24-.37.64-.67 1.19-.88.55-.22 1.25-.32 2.09-.32h4v.07ZM81.04 17.61h4.32v25.92h-4.32zM103.36 26.14c-1.32-.79-2.87-1.19-4.64-1.19s-3.43.41-4.81 1.22a8.337 8.337 0 0 0-3.2 3.38c-.76 1.44-1.13 3.12-1.13 5.04s.38 3.48 1.15 4.9a8.24 8.24 0 0 0 3.2 3.29c1.37.78 2.95 1.17 4.75 1.17 1.42 0 2.69-.26 3.82-.77 1.13-.52 2.08-1.22 2.84-2.12.77-.9 1.32-1.91 1.66-3.04h-4.39c-.31.72-.8 1.3-1.46 1.73-.66.43-1.49.65-2.5.65-.91 0-1.73-.21-2.47-.63-.73-.42-1.31-1.04-1.73-1.85-.36-.69-.55-1.5-.61-2.41h13.58c.05-.31.07-.61.07-.9v-.79c0-1.66-.36-3.15-1.08-4.48-.72-1.33-1.74-2.39-3.06-3.19Zm-9.45 6.59c.1-.69.28-1.3.55-1.82.43-.8 1.02-1.41 1.76-1.82.74-.41 1.56-.61 2.45-.61 1.25 0 2.29.38 3.13 1.13.84.76 1.28 1.79 1.33 3.11H93.9Z"/></g></svg>